<mxfile host="app.diagrams.net" modified="2023-05-12T19:01:24.119Z" agent="Mozilla/5.0 (Macintosh; Intel Mac OS X 10_15_7) AppleWebKit/537.36 (KHTML, like Gecko) Chrome/113.0.0.0 Safari/537.36" etag="gs5RFmDY6C0POhjuGH5r" version="21.2.9" type="device">
  <diagram name="Page-1" id="w-aZ-9d8UH70HOd_NkmQ">
    <mxGraphModel dx="1304" dy="870" grid="1" gridSize="10" guides="1" tooltips="1" connect="1" arrows="1" fold="1" page="1" pageScale="1" pageWidth="850" pageHeight="1100" math="0" shadow="0">
      <root>
        <mxCell id="0" />
        <mxCell id="1" parent="0" />
        <mxCell id="NGjQq1jtdViuqMemrlb5-1" value="&lt;font style=&quot;font-size: 21px;&quot;&gt;User&lt;/font&gt;" style="rounded=0;whiteSpace=wrap;html=1;fillColor=#d5e8d4;strokeColor=#82b366;" vertex="1" parent="1">
          <mxGeometry x="20" y="130" width="150" height="60" as="geometry" />
        </mxCell>
        <mxCell id="NGjQq1jtdViuqMemrlb5-2" value="&lt;font style=&quot;font-size: 21px;&quot;&gt;Client&lt;/font&gt;" style="rounded=0;whiteSpace=wrap;html=1;fillColor=#dae8fc;strokeColor=#6c8ebf;" vertex="1" parent="1">
          <mxGeometry x="210" y="130" width="150" height="60" as="geometry" />
        </mxCell>
        <mxCell id="NGjQq1jtdViuqMemrlb5-3" value="&lt;font style=&quot;font-size: 21px;&quot;&gt;Server&lt;/font&gt;" style="rounded=0;whiteSpace=wrap;html=1;fillColor=#f8cecc;strokeColor=#b85450;" vertex="1" parent="1">
          <mxGeometry x="425" y="130" width="150" height="60" as="geometry" />
        </mxCell>
        <mxCell id="NGjQq1jtdViuqMemrlb5-4" value="&lt;font style=&quot;font-size: 21px;&quot;&gt;Database&lt;/font&gt;" style="rounded=0;whiteSpace=wrap;html=1;fillColor=#e1d5e7;strokeColor=#9673a6;" vertex="1" parent="1">
          <mxGeometry x="640" y="130" width="150" height="60" as="geometry" />
        </mxCell>
        <mxCell id="NGjQq1jtdViuqMemrlb5-5" value="" style="endArrow=none;dashed=1;html=1;dashPattern=1 3;strokeWidth=2;rounded=0;fillColor=#d5e8d4;strokeColor=#82b366;" edge="1" parent="1">
          <mxGeometry width="50" height="50" relative="1" as="geometry">
            <mxPoint x="100" y="710" as="sourcePoint" />
            <mxPoint x="100" y="190" as="targetPoint" />
          </mxGeometry>
        </mxCell>
        <mxCell id="NGjQq1jtdViuqMemrlb5-6" value="" style="endArrow=none;dashed=1;html=1;dashPattern=1 3;strokeWidth=2;rounded=0;fillColor=#dae8fc;strokeColor=#6c8ebf;" edge="1" parent="1" source="NGjQq1jtdViuqMemrlb5-9">
          <mxGeometry width="50" height="50" relative="1" as="geometry">
            <mxPoint x="284.5" y="620" as="sourcePoint" />
            <mxPoint x="284.5" y="190" as="targetPoint" />
          </mxGeometry>
        </mxCell>
        <mxCell id="NGjQq1jtdViuqMemrlb5-7" value="" style="endArrow=none;dashed=1;html=1;dashPattern=1 3;strokeWidth=2;rounded=0;fillColor=#f8cecc;strokeColor=#b85450;" edge="1" parent="1" source="NGjQq1jtdViuqMemrlb5-15">
          <mxGeometry width="50" height="50" relative="1" as="geometry">
            <mxPoint x="499.5" y="620" as="sourcePoint" />
            <mxPoint x="499.5" y="190" as="targetPoint" />
          </mxGeometry>
        </mxCell>
        <mxCell id="NGjQq1jtdViuqMemrlb5-8" value="" style="endArrow=none;dashed=1;html=1;dashPattern=1 3;strokeWidth=2;rounded=0;fillColor=#e1d5e7;strokeColor=#9673a6;" edge="1" parent="1" source="NGjQq1jtdViuqMemrlb5-19">
          <mxGeometry width="50" height="50" relative="1" as="geometry">
            <mxPoint x="714.5" y="620" as="sourcePoint" />
            <mxPoint x="714.5" y="190" as="targetPoint" />
          </mxGeometry>
        </mxCell>
        <mxCell id="NGjQq1jtdViuqMemrlb5-10" value="" style="endArrow=none;dashed=1;html=1;dashPattern=1 3;strokeWidth=2;rounded=0;fillColor=#dae8fc;strokeColor=#6c8ebf;" edge="1" parent="1" source="NGjQq1jtdViuqMemrlb5-30" target="NGjQq1jtdViuqMemrlb5-9">
          <mxGeometry width="50" height="50" relative="1" as="geometry">
            <mxPoint x="284.5" y="620" as="sourcePoint" />
            <mxPoint x="284.5" y="190" as="targetPoint" />
          </mxGeometry>
        </mxCell>
        <mxCell id="NGjQq1jtdViuqMemrlb5-9" value="" style="rounded=0;whiteSpace=wrap;html=1;fillColor=#dae8fc;strokeColor=#6c8ebf;" vertex="1" parent="1">
          <mxGeometry x="275" y="230" width="20" height="90" as="geometry" />
        </mxCell>
        <mxCell id="NGjQq1jtdViuqMemrlb5-11" value="" style="endArrow=classic;html=1;rounded=0;fillColor=#dae8fc;strokeColor=#6c8ebf;" edge="1" parent="1">
          <mxGeometry width="50" height="50" relative="1" as="geometry">
            <mxPoint x="100" y="250" as="sourcePoint" />
            <mxPoint x="275" y="250" as="targetPoint" />
          </mxGeometry>
        </mxCell>
        <mxCell id="NGjQq1jtdViuqMemrlb5-12" value="" style="endArrow=none;html=1;rounded=0;startArrow=block;startFill=1;endFill=0;fillColor=#d5e8d4;strokeColor=#82b366;" edge="1" parent="1">
          <mxGeometry width="50" height="50" relative="1" as="geometry">
            <mxPoint x="100" y="300" as="sourcePoint" />
            <mxPoint x="275" y="300" as="targetPoint" />
          </mxGeometry>
        </mxCell>
        <mxCell id="NGjQq1jtdViuqMemrlb5-13" value="&lt;font color=&quot;#a9c4eb&quot;&gt;&lt;b&gt;1. Request&lt;/b&gt;&lt;/font&gt;" style="text;strokeColor=none;align=center;fillColor=none;html=1;verticalAlign=middle;whiteSpace=wrap;rounded=0;" vertex="1" parent="1">
          <mxGeometry x="120" y="220" width="140" height="30" as="geometry" />
        </mxCell>
        <mxCell id="NGjQq1jtdViuqMemrlb5-14" value="&lt;b style=&quot;&quot;&gt;&lt;font color=&quot;#b9e0a5&quot;&gt;2. Auth Required&lt;/font&gt;&lt;/b&gt;" style="text;strokeColor=none;align=center;fillColor=none;html=1;verticalAlign=middle;whiteSpace=wrap;rounded=0;" vertex="1" parent="1">
          <mxGeometry x="120" y="270" width="140" height="30" as="geometry" />
        </mxCell>
        <mxCell id="NGjQq1jtdViuqMemrlb5-16" value="" style="endArrow=none;dashed=1;html=1;dashPattern=1 3;strokeWidth=2;rounded=0;fillColor=#f8cecc;strokeColor=#b85450;" edge="1" parent="1" source="NGjQq1jtdViuqMemrlb5-47" target="NGjQq1jtdViuqMemrlb5-15">
          <mxGeometry width="50" height="50" relative="1" as="geometry">
            <mxPoint x="500" y="710" as="sourcePoint" />
            <mxPoint x="499.5" y="190" as="targetPoint" />
          </mxGeometry>
        </mxCell>
        <mxCell id="NGjQq1jtdViuqMemrlb5-15" value="" style="rounded=0;whiteSpace=wrap;html=1;fillColor=#f8cecc;strokeColor=#b85450;" vertex="1" parent="1">
          <mxGeometry x="490" y="360" width="20" height="120" as="geometry" />
        </mxCell>
        <mxCell id="NGjQq1jtdViuqMemrlb5-18" value="" style="endArrow=classic;html=1;rounded=0;fillColor=#dae8fc;strokeColor=#6c8ebf;entryX=0;entryY=0.077;entryDx=0;entryDy=0;entryPerimeter=0;" edge="1" parent="1" target="NGjQq1jtdViuqMemrlb5-30">
          <mxGeometry width="50" height="50" relative="1" as="geometry">
            <mxPoint x="100" y="360" as="sourcePoint" />
            <mxPoint x="270" y="360" as="targetPoint" />
          </mxGeometry>
        </mxCell>
        <mxCell id="NGjQq1jtdViuqMemrlb5-20" value="" style="endArrow=none;dashed=1;html=1;dashPattern=1 3;strokeWidth=2;rounded=0;fillColor=#f8cecc;strokeColor=#b85450;" edge="1" parent="1" source="NGjQq1jtdViuqMemrlb5-56" target="NGjQq1jtdViuqMemrlb5-19">
          <mxGeometry width="50" height="50" relative="1" as="geometry">
            <mxPoint x="715" y="710" as="sourcePoint" />
            <mxPoint x="714.5" y="190" as="targetPoint" />
          </mxGeometry>
        </mxCell>
        <mxCell id="NGjQq1jtdViuqMemrlb5-19" value="" style="rounded=0;whiteSpace=wrap;html=1;fillColor=#e1d5e7;strokeColor=#9673a6;" vertex="1" parent="1">
          <mxGeometry x="705" y="360" width="20" height="90" as="geometry" />
        </mxCell>
        <mxCell id="NGjQq1jtdViuqMemrlb5-24" value="" style="endArrow=classic;html=1;rounded=0;fillColor=#f8cecc;strokeColor=#b85450;" edge="1" parent="1">
          <mxGeometry width="50" height="50" relative="1" as="geometry">
            <mxPoint x="295" y="380" as="sourcePoint" />
            <mxPoint x="490" y="380" as="targetPoint" />
          </mxGeometry>
        </mxCell>
        <mxCell id="NGjQq1jtdViuqMemrlb5-27" value="&lt;b style=&quot;&quot;&gt;&lt;font color=&quot;#a9c4eb&quot;&gt;1. User Login (Input)&lt;/font&gt;&lt;/b&gt;" style="text;strokeColor=none;align=center;fillColor=none;html=1;verticalAlign=middle;whiteSpace=wrap;rounded=0;" vertex="1" parent="1">
          <mxGeometry x="115" y="330" width="145" height="30" as="geometry" />
        </mxCell>
        <mxCell id="NGjQq1jtdViuqMemrlb5-31" value="" style="endArrow=none;dashed=1;html=1;dashPattern=1 3;strokeWidth=2;rounded=0;fillColor=#dae8fc;strokeColor=#6c8ebf;" edge="1" parent="1" source="NGjQq1jtdViuqMemrlb5-42" target="NGjQq1jtdViuqMemrlb5-30">
          <mxGeometry width="50" height="50" relative="1" as="geometry">
            <mxPoint x="285" y="710" as="sourcePoint" />
            <mxPoint x="285" y="320" as="targetPoint" />
          </mxGeometry>
        </mxCell>
        <mxCell id="NGjQq1jtdViuqMemrlb5-30" value="" style="rounded=0;whiteSpace=wrap;html=1;fillColor=#dae8fc;strokeColor=#6c8ebf;" vertex="1" parent="1">
          <mxGeometry x="275" y="350" width="20" height="140" as="geometry" />
        </mxCell>
        <mxCell id="NGjQq1jtdViuqMemrlb5-32" value="&lt;b style=&quot;&quot;&gt;&lt;font color=&quot;#f19c99&quot;&gt;2. Send Login Data&lt;/font&gt;&lt;/b&gt;" style="text;strokeColor=none;align=center;fillColor=none;html=1;verticalAlign=middle;whiteSpace=wrap;rounded=0;" vertex="1" parent="1">
          <mxGeometry x="320" y="350" width="145" height="30" as="geometry" />
        </mxCell>
        <mxCell id="NGjQq1jtdViuqMemrlb5-33" value="" style="endArrow=classic;html=1;rounded=0;fillColor=#e1d5e7;strokeColor=#9673a6;" edge="1" parent="1">
          <mxGeometry width="50" height="50" relative="1" as="geometry">
            <mxPoint x="510" y="390" as="sourcePoint" />
            <mxPoint x="705" y="390" as="targetPoint" />
          </mxGeometry>
        </mxCell>
        <mxCell id="NGjQq1jtdViuqMemrlb5-34" value="&lt;b style=&quot;&quot;&gt;&lt;font color=&quot;#cda2be&quot;&gt;3. Find User&lt;/font&gt;&lt;/b&gt;" style="text;strokeColor=none;align=center;fillColor=none;html=1;verticalAlign=middle;whiteSpace=wrap;rounded=0;" vertex="1" parent="1">
          <mxGeometry x="530" y="360" width="145" height="30" as="geometry" />
        </mxCell>
        <mxCell id="NGjQq1jtdViuqMemrlb5-35" value="" style="endArrow=none;html=1;rounded=0;fillColor=#f8cecc;strokeColor=#b85450;startArrow=block;startFill=1;endFill=0;" edge="1" parent="1">
          <mxGeometry width="50" height="50" relative="1" as="geometry">
            <mxPoint x="510" y="430" as="sourcePoint" />
            <mxPoint x="705" y="430" as="targetPoint" />
          </mxGeometry>
        </mxCell>
        <mxCell id="NGjQq1jtdViuqMemrlb5-36" value="&lt;b style=&quot;&quot;&gt;&lt;font color=&quot;#f19c99&quot;&gt;4. Send User Data&lt;/font&gt;&lt;/b&gt;" style="text;strokeColor=none;align=center;fillColor=none;html=1;verticalAlign=middle;whiteSpace=wrap;rounded=0;" vertex="1" parent="1">
          <mxGeometry x="530" y="400" width="145" height="30" as="geometry" />
        </mxCell>
        <mxCell id="NGjQq1jtdViuqMemrlb5-37" value="" style="endArrow=none;html=1;rounded=0;fillColor=#dae8fc;strokeColor=#6c8ebf;startArrow=block;startFill=1;endFill=0;" edge="1" parent="1">
          <mxGeometry width="50" height="50" relative="1" as="geometry">
            <mxPoint x="295" y="460" as="sourcePoint" />
            <mxPoint x="490" y="460" as="targetPoint" />
          </mxGeometry>
        </mxCell>
        <mxCell id="NGjQq1jtdViuqMemrlb5-39" value="" style="endArrow=none;dashed=1;html=1;dashPattern=1 3;strokeWidth=2;rounded=0;fillColor=#f8cecc;strokeColor=#b85450;startArrow=none;startFill=0;exitX=1;exitY=0.75;exitDx=0;exitDy=0;entryX=0;entryY=0;entryDx=0;entryDy=0;" edge="1" parent="1" source="NGjQq1jtdViuqMemrlb5-15" target="NGjQq1jtdViuqMemrlb5-40">
          <mxGeometry width="50" height="50" relative="1" as="geometry">
            <mxPoint x="515" y="450" as="sourcePoint" />
            <mxPoint x="555" y="470" as="targetPoint" />
          </mxGeometry>
        </mxCell>
        <mxCell id="NGjQq1jtdViuqMemrlb5-40" value="&lt;b style=&quot;&quot;&gt;&lt;font color=&quot;#f19c99&quot;&gt;5. Compare user passwords | Create JWT with SECRET&lt;/font&gt;&lt;/b&gt;" style="text;strokeColor=none;align=center;fillColor=none;html=1;verticalAlign=middle;whiteSpace=wrap;rounded=0;" vertex="1" parent="1">
          <mxGeometry x="542.5" y="460" width="120" height="30" as="geometry" />
        </mxCell>
        <mxCell id="NGjQq1jtdViuqMemrlb5-41" value="&lt;b style=&quot;&quot;&gt;&lt;font color=&quot;#a9c4eb&quot;&gt;6. Return JWT&lt;/font&gt;&lt;/b&gt;" style="text;strokeColor=none;align=center;fillColor=none;html=1;verticalAlign=middle;whiteSpace=wrap;rounded=0;" vertex="1" parent="1">
          <mxGeometry x="320" y="430" width="145" height="30" as="geometry" />
        </mxCell>
        <mxCell id="NGjQq1jtdViuqMemrlb5-43" value="" style="endArrow=none;dashed=1;html=1;dashPattern=1 3;strokeWidth=2;rounded=0;fillColor=#dae8fc;strokeColor=#6c8ebf;" edge="1" parent="1" target="NGjQq1jtdViuqMemrlb5-42">
          <mxGeometry width="50" height="50" relative="1" as="geometry">
            <mxPoint x="285" y="710" as="sourcePoint" />
            <mxPoint x="285" y="490" as="targetPoint" />
          </mxGeometry>
        </mxCell>
        <mxCell id="NGjQq1jtdViuqMemrlb5-42" value="" style="rounded=0;whiteSpace=wrap;html=1;fillColor=#dae8fc;strokeColor=#6c8ebf;" vertex="1" parent="1">
          <mxGeometry x="275" y="530" width="20" height="130" as="geometry" />
        </mxCell>
        <mxCell id="NGjQq1jtdViuqMemrlb5-45" value="" style="endArrow=classic;html=1;rounded=0;fillColor=#dae8fc;strokeColor=#6c8ebf;entryX=0;entryY=0.077;entryDx=0;entryDy=0;entryPerimeter=0;" edge="1" parent="1">
          <mxGeometry width="50" height="50" relative="1" as="geometry">
            <mxPoint x="100" y="550" as="sourcePoint" />
            <mxPoint x="275" y="551" as="targetPoint" />
          </mxGeometry>
        </mxCell>
        <mxCell id="NGjQq1jtdViuqMemrlb5-46" value="&lt;b style=&quot;&quot;&gt;&lt;font color=&quot;#a9c4eb&quot;&gt;1. Request&lt;/font&gt;&lt;/b&gt;" style="text;strokeColor=none;align=center;fillColor=none;html=1;verticalAlign=middle;whiteSpace=wrap;rounded=0;" vertex="1" parent="1">
          <mxGeometry x="117.5" y="520" width="145" height="30" as="geometry" />
        </mxCell>
        <mxCell id="NGjQq1jtdViuqMemrlb5-48" value="" style="endArrow=none;dashed=1;html=1;dashPattern=1 3;strokeWidth=2;rounded=0;fillColor=#f8cecc;strokeColor=#b85450;" edge="1" parent="1" target="NGjQq1jtdViuqMemrlb5-47">
          <mxGeometry width="50" height="50" relative="1" as="geometry">
            <mxPoint x="500" y="710" as="sourcePoint" />
            <mxPoint x="500" y="480" as="targetPoint" />
          </mxGeometry>
        </mxCell>
        <mxCell id="NGjQq1jtdViuqMemrlb5-47" value="" style="rounded=0;whiteSpace=wrap;html=1;fillColor=#f8cecc;strokeColor=#b85450;" vertex="1" parent="1">
          <mxGeometry x="490" y="540" width="20" height="100" as="geometry" />
        </mxCell>
        <mxCell id="NGjQq1jtdViuqMemrlb5-49" value="" style="endArrow=classic;html=1;rounded=0;fillColor=#f8cecc;strokeColor=#b85450;" edge="1" parent="1">
          <mxGeometry width="50" height="50" relative="1" as="geometry">
            <mxPoint x="295" y="570" as="sourcePoint" />
            <mxPoint x="490" y="570" as="targetPoint" />
          </mxGeometry>
        </mxCell>
        <mxCell id="NGjQq1jtdViuqMemrlb5-50" value="&lt;b style=&quot;&quot;&gt;&lt;font color=&quot;#f19c99&quot;&gt;2. Send Auth request with Authorization Header (JWT)&lt;/font&gt;&lt;/b&gt;" style="text;strokeColor=none;align=center;fillColor=none;html=1;verticalAlign=middle;whiteSpace=wrap;rounded=0;" vertex="1" parent="1">
          <mxGeometry x="307.5" y="535" width="170" height="30" as="geometry" />
        </mxCell>
        <mxCell id="NGjQq1jtdViuqMemrlb5-52" value="&lt;b style=&quot;&quot;&gt;&lt;font color=&quot;#f19c99&quot;&gt;3. Decode and Validate JWT&lt;/font&gt;&lt;/b&gt;" style="text;strokeColor=none;align=center;fillColor=none;html=1;verticalAlign=middle;whiteSpace=wrap;rounded=0;" vertex="1" parent="1">
          <mxGeometry x="550" y="555" width="90" height="30" as="geometry" />
        </mxCell>
        <mxCell id="NGjQq1jtdViuqMemrlb5-54" value="" style="endArrow=none;dashed=1;html=1;dashPattern=1 3;strokeWidth=2;rounded=0;fillColor=#f8cecc;strokeColor=#b85450;startArrow=none;startFill=0;" edge="1" parent="1" target="NGjQq1jtdViuqMemrlb5-52">
          <mxGeometry width="50" height="50" relative="1" as="geometry">
            <mxPoint x="510" y="590" as="sourcePoint" />
            <mxPoint x="570" y="580" as="targetPoint" />
            <Array as="points" />
          </mxGeometry>
        </mxCell>
        <mxCell id="NGjQq1jtdViuqMemrlb5-57" value="" style="endArrow=none;dashed=1;html=1;dashPattern=1 3;strokeWidth=2;rounded=0;fillColor=#f8cecc;strokeColor=#b85450;" edge="1" parent="1" target="NGjQq1jtdViuqMemrlb5-56">
          <mxGeometry width="50" height="50" relative="1" as="geometry">
            <mxPoint x="715" y="710" as="sourcePoint" />
            <mxPoint x="715" y="450" as="targetPoint" />
          </mxGeometry>
        </mxCell>
        <mxCell id="NGjQq1jtdViuqMemrlb5-56" value="" style="rounded=0;whiteSpace=wrap;html=1;fillColor=#e1d5e7;strokeColor=#9673a6;" vertex="1" parent="1">
          <mxGeometry x="705" y="565" width="20" height="90" as="geometry" />
        </mxCell>
        <mxCell id="NGjQq1jtdViuqMemrlb5-62" value="" style="endArrow=none;html=1;rounded=0;fillColor=#dae8fc;strokeColor=#6c8ebf;startArrow=block;startFill=1;endFill=0;" edge="1" parent="1">
          <mxGeometry width="50" height="50" relative="1" as="geometry">
            <mxPoint x="295" y="620" as="sourcePoint" />
            <mxPoint x="490" y="620" as="targetPoint" />
          </mxGeometry>
        </mxCell>
        <mxCell id="NGjQq1jtdViuqMemrlb5-63" value="&lt;b style=&quot;&quot;&gt;&lt;font color=&quot;#a9c4eb&quot;&gt;4. Return Response&lt;/font&gt;&lt;/b&gt;" style="text;strokeColor=none;align=center;fillColor=none;html=1;verticalAlign=middle;whiteSpace=wrap;rounded=0;" vertex="1" parent="1">
          <mxGeometry x="320" y="590" width="145" height="30" as="geometry" />
        </mxCell>
      </root>
    </mxGraphModel>
  </diagram>
</mxfile>
